<?xml version="1.0" encoding="UTF-8" standalone="no"?>
<!-- Created with Inkscape (http://www.inkscape.org/) -->

<svg
   xmlns:dc="http://purl.org/dc/elements/1.1/"
   xmlns:cc="http://creativecommons.org/ns#"
   xmlns:rdf="http://www.w3.org/1999/02/22-rdf-syntax-ns#"
   xmlns:svg="http://www.w3.org/2000/svg"
   xmlns="http://www.w3.org/2000/svg"
   xmlns:sodipodi="http://sodipodi.sourceforge.net/DTD/sodipodi-0.dtd"
   xmlns:inkscape="http://www.inkscape.org/namespaces/inkscape"
   width="11in"
   height="8.5in"
   viewBox="0 0 11 8.5"
   version="1.1"
   id="SVGRoot"
   inkscape:version="0.92.5 (2060ec1f9f, 2020-04-08)"
   sodipodi:docname="drawing.svg">
  <defs
     id="defs3713" />
  <sodipodi:namedview
     id="base"
     pagecolor="#ffffff"
     bordercolor="#666666"
     borderopacity="1.0"
     inkscape:pageopacity="0.0"
     inkscape:pageshadow="2"
     inkscape:zoom="2.8"
     inkscape:cx="554.0498"
     inkscape:cy="419.25876"
     inkscape:document-units="cm"
     inkscape:current-layer="layer1"
     showgrid="true"
     inkscape:window-width="5120"
     inkscape:window-height="2806"
     inkscape:window-x="3840"
     inkscape:window-y="0"
     inkscape:window-maximized="1"
     showguides="true">
    <inkscape:grid
       type="xygrid"
       id="grid3726"
       units="cm"
       enabled="true"
       empspacing="1"
       spacingx="0.19685039"
       spacingy="0.19685039"
       visible="true"
       snapvisiblegridlinesonly="false"
       dotted="false" />
  </sodipodi:namedview>
  <metadata
     id="metadata3716">
    <rdf:RDF>
      <cc:Work
         rdf:about="">
        <dc:format>image/svg+xml</dc:format>
        <dc:type
           rdf:resource="http://purl.org/dc/dcmitype/StillImage" />
        <dc:title></dc:title>
      </cc:Work>
    </rdf:RDF>
  </metadata>
  <g
     inkscape:label="Layer 1"
     inkscape:groupmode="layer"
     id="layer1">
    <g
       style="image-rendering:auto;shape-rendering:crispEdges"
       id="g3814"
       transform="matrix(0.11248594,0,0,0.11248594,0.78740156,0.82283479)">
      <rect
         id="rect3728"
         height="7"
         width="7"
         y="0"
         x="0"
         style="fill:#000000" />
      <rect
         id="rect3730"
         y="1"
         x="1"
         height="1"
         width="1"
         style="fill:#ffffff" />
      <rect
         id="rect3732"
         y="1"
         x="2"
         height="1"
         width="1"
         style="fill:#000000" />
      <rect
         id="rect3734"
         y="1"
         x="3"
         height="1"
         width="1"
         style="fill:#ffffff" />
      <rect
         id="rect3736"
         y="1"
         x="4"
         height="1"
         width="1"
         style="fill:#000000" />
      <rect
         id="rect3738"
         y="1"
         x="5"
         height="1"
         width="1"
         style="fill:#000000" />
      <rect
         id="rect3740"
         y="2"
         x="1"
         height="1"
         width="1"
         style="fill:#000000" />
      <rect
         id="rect3742"
         y="2"
         x="2"
         height="1"
         width="1"
         style="fill:#ffffff" />
      <rect
         id="rect3744"
         y="2"
         x="3"
         height="1"
         width="1"
         style="fill:#000000" />
      <rect
         id="rect3746"
         y="2"
         x="4"
         height="1"
         width="1"
         style="fill:#ffffff" />
      <rect
         id="rect3748"
         y="2"
         x="5"
         height="1"
         width="1"
         style="fill:#ffffff" />
      <rect
         id="rect3750"
         y="3"
         x="1"
         height="1"
         width="1"
         style="fill:#000000" />
      <rect
         id="rect3752"
         y="3"
         x="2"
         height="1"
         width="1"
         style="fill:#ffffff" />
      <rect
         id="rect3754"
         y="3"
         x="3"
         height="1"
         width="1"
         style="fill:#ffffff" />
      <rect
         id="rect3756"
         y="3"
         x="4"
         height="1"
         width="1"
         style="fill:#000000" />
      <rect
         id="rect3758"
         y="3"
         x="5"
         height="1"
         width="1"
         style="fill:#000000" />
      <rect
         id="rect3760"
         y="4"
         x="1"
         height="1"
         width="1"
         style="fill:#ffffff" />
      <rect
         id="rect3762"
         y="4"
         x="2"
         height="1"
         width="1"
         style="fill:#000000" />
      <rect
         id="rect3764"
         y="4"
         x="3"
         height="1"
         width="1"
         style="fill:#ffffff" />
      <rect
         id="rect3766"
         y="4"
         x="4"
         height="1"
         width="1"
         style="fill:#000000" />
      <rect
         id="rect3768"
         y="4"
         x="5"
         height="1"
         width="1"
         style="fill:#ffffff" />
      <rect
         id="rect3770"
         y="5"
         x="1"
         height="1"
         width="1"
         style="fill:#ffffff" />
      <rect
         id="rect3772"
         y="5"
         x="2"
         height="1"
         width="1"
         style="fill:#ffffff" />
      <rect
         id="rect3774"
         y="5"
         x="3"
         height="1"
         width="1"
         style="fill:#ffffff" />
      <rect
         id="rect3776"
         y="5"
         x="4"
         height="1"
         width="1"
         style="fill:#000000" />
      <rect
         id="rect3778"
         y="5"
         x="5"
         height="1"
         width="1"
         style="fill:#000000" />
    </g>
    <g
       style="shape-rendering:crispEdges"
       id="g3902"
       transform="matrix(0.11248593,0,0,0.11248594,2.9527559,0.82283479)">
      <rect
         id="rect3816"
         height="7"
         width="7"
         y="0"
         x="0"
         style="fill:#000000" />
      <rect
         id="rect3818"
         y="1"
         x="1"
         height="1"
         width="1"
         style="fill:#000000" />
      <rect
         id="rect3820"
         y="1"
         x="2"
         height="1"
         width="1"
         style="fill:#000000" />
      <rect
         id="rect3822"
         y="1"
         x="3"
         height="1"
         width="1"
         style="fill:#000000" />
      <rect
         id="rect3824"
         y="1"
         x="4"
         height="1"
         width="1"
         style="fill:#000000" />
      <rect
         id="rect3826"
         y="1"
         x="5"
         height="1"
         width="1"
         style="fill:#ffffff" />
      <rect
         id="rect3828"
         y="2"
         x="1"
         height="1"
         width="1"
         style="fill:#ffffff" />
      <rect
         id="rect3830"
         y="2"
         x="2"
         height="1"
         width="1"
         style="fill:#ffffff" />
      <rect
         id="rect3832"
         y="2"
         x="3"
         height="1"
         width="1"
         style="fill:#000000" />
      <rect
         id="rect3834"
         y="2"
         x="4"
         height="1"
         width="1"
         style="fill:#000000" />
      <rect
         id="rect3836"
         y="2"
         x="5"
         height="1"
         width="1"
         style="fill:#000000" />
      <rect
         id="rect3838"
         y="3"
         x="1"
         height="1"
         width="1"
         style="fill:#000000" />
      <rect
         id="rect3840"
         y="3"
         x="2"
         height="1"
         width="1"
         style="fill:#000000" />
      <rect
         id="rect3842"
         y="3"
         x="3"
         height="1"
         width="1"
         style="fill:#000000" />
      <rect
         id="rect3844"
         y="3"
         x="4"
         height="1"
         width="1"
         style="fill:#000000" />
      <rect
         id="rect3846"
         y="3"
         x="5"
         height="1"
         width="1"
         style="fill:#ffffff" />
      <rect
         id="rect3848"
         y="4"
         x="1"
         height="1"
         width="1"
         style="fill:#ffffff" />
      <rect
         id="rect3850"
         y="4"
         x="2"
         height="1"
         width="1"
         style="fill:#000000" />
      <rect
         id="rect3852"
         y="4"
         x="3"
         height="1"
         width="1"
         style="fill:#ffffff" />
      <rect
         id="rect3854"
         y="4"
         x="4"
         height="1"
         width="1"
         style="fill:#ffffff" />
      <rect
         id="rect3856"
         y="4"
         x="5"
         height="1"
         width="1"
         style="fill:#ffffff" />
      <rect
         id="rect3858"
         y="5"
         x="1"
         height="1"
         width="1"
         style="fill:#000000" />
      <rect
         id="rect3860"
         y="5"
         x="2"
         height="1"
         width="1"
         style="fill:#000000" />
      <rect
         id="rect3862"
         y="5"
         x="3"
         height="1"
         width="1"
         style="fill:#ffffff" />
      <rect
         id="rect3864"
         y="5"
         x="4"
         height="1"
         width="1"
         style="fill:#ffffff" />
      <rect
         id="rect3866"
         y="5"
         x="5"
         height="1"
         width="1"
         style="fill:#000000" />
    </g>
    <g
       style="shape-rendering:crispEdges"
       id="g4078"
       transform="matrix(0.11248594,0,0,0.11248594,7.2834644,0.82283479)">
      <rect
         id="rect3992"
         height="7"
         width="7"
         y="0"
         x="0"
         style="fill:#000000" />
      <rect
         id="rect3994"
         y="1"
         x="1"
         height="1"
         width="1"
         style="fill:#ffffff" />
      <rect
         id="rect3996"
         y="1"
         x="2"
         height="1"
         width="1"
         style="fill:#000000" />
      <rect
         id="rect3998"
         y="1"
         x="3"
         height="1"
         width="1"
         style="fill:#000000" />
      <rect
         id="rect4000"
         y="1"
         x="4"
         height="1"
         width="1"
         style="fill:#000000" />
      <rect
         id="rect4002"
         y="1"
         x="5"
         height="1"
         width="1"
         style="fill:#000000" />
      <rect
         id="rect4004"
         y="2"
         x="1"
         height="1"
         width="1"
         style="fill:#000000" />
      <rect
         id="rect4006"
         y="2"
         x="2"
         height="1"
         width="1"
         style="fill:#000000" />
      <rect
         id="rect4008"
         y="2"
         x="3"
         height="1"
         width="1"
         style="fill:#ffffff" />
      <rect
         id="rect4010"
         y="2"
         x="4"
         height="1"
         width="1"
         style="fill:#ffffff" />
      <rect
         id="rect4012"
         y="2"
         x="5"
         height="1"
         width="1"
         style="fill:#ffffff" />
      <rect
         id="rect4014"
         y="3"
         x="1"
         height="1"
         width="1"
         style="fill:#000000" />
      <rect
         id="rect4016"
         y="3"
         x="2"
         height="1"
         width="1"
         style="fill:#000000" />
      <rect
         id="rect4018"
         y="3"
         x="3"
         height="1"
         width="1"
         style="fill:#ffffff" />
      <rect
         id="rect4020"
         y="3"
         x="4"
         height="1"
         width="1"
         style="fill:#000000" />
      <rect
         id="rect4022"
         y="3"
         x="5"
         height="1"
         width="1"
         style="fill:#ffffff" />
      <rect
         id="rect4024"
         y="4"
         x="1"
         height="1"
         width="1"
         style="fill:#000000" />
      <rect
         id="rect4026"
         y="4"
         x="2"
         height="1"
         width="1"
         style="fill:#ffffff" />
      <rect
         id="rect4028"
         y="4"
         x="3"
         height="1"
         width="1"
         style="fill:#ffffff" />
      <rect
         id="rect4030"
         y="4"
         x="4"
         height="1"
         width="1"
         style="fill:#ffffff" />
      <rect
         id="rect4032"
         y="4"
         x="5"
         height="1"
         width="1"
         style="fill:#ffffff" />
      <rect
         id="rect4034"
         y="5"
         x="1"
         height="1"
         width="1"
         style="fill:#ffffff" />
      <rect
         id="rect4036"
         y="5"
         x="2"
         height="1"
         width="1"
         style="fill:#000000" />
      <rect
         id="rect4038"
         y="5"
         x="3"
         height="1"
         width="1"
         style="fill:#ffffff" />
      <rect
         id="rect4040"
         y="5"
         x="4"
         height="1"
         width="1"
         style="fill:#ffffff" />
      <rect
         id="rect4042"
         y="5"
         x="5"
         height="1"
         width="1"
         style="fill:#ffffff" />
    </g>
    <g
       style="shape-rendering:crispEdges"
       id="g4166"
       transform="matrix(0.11248594,0,0,0.11248594,9.4488187,0.82283479)">
      <rect
         id="rect4080"
         height="7"
         width="7"
         y="0"
         x="0"
         style="fill:#000000" />
      <rect
         id="rect4082"
         y="1"
         x="1"
         height="1"
         width="1"
         style="fill:#ffffff" />
      <rect
         id="rect4084"
         y="1"
         x="2"
         height="1"
         width="1"
         style="fill:#ffffff" />
      <rect
         id="rect4086"
         y="1"
         x="3"
         height="1"
         width="1"
         style="fill:#000000" />
      <rect
         id="rect4088"
         y="1"
         x="4"
         height="1"
         width="1"
         style="fill:#ffffff" />
      <rect
         id="rect4090"
         y="1"
         x="5"
         height="1"
         width="1"
         style="fill:#000000" />
      <rect
         id="rect4092"
         y="2"
         x="1"
         height="1"
         width="1"
         style="fill:#ffffff" />
      <rect
         id="rect4094"
         y="2"
         x="2"
         height="1"
         width="1"
         style="fill:#ffffff" />
      <rect
         id="rect4096"
         y="2"
         x="3"
         height="1"
         width="1"
         style="fill:#ffffff" />
      <rect
         id="rect4098"
         y="2"
         x="4"
         height="1"
         width="1"
         style="fill:#000000" />
      <rect
         id="rect4100"
         y="2"
         x="5"
         height="1"
         width="1"
         style="fill:#ffffff" />
      <rect
         id="rect4102"
         y="3"
         x="1"
         height="1"
         width="1"
         style="fill:#000000" />
      <rect
         id="rect4104"
         y="3"
         x="2"
         height="1"
         width="1"
         style="fill:#ffffff" />
      <rect
         id="rect4106"
         y="3"
         x="3"
         height="1"
         width="1"
         style="fill:#ffffff" />
      <rect
         id="rect4108"
         y="3"
         x="4"
         height="1"
         width="1"
         style="fill:#000000" />
      <rect
         id="rect4110"
         y="3"
         x="5"
         height="1"
         width="1"
         style="fill:#ffffff" />
      <rect
         id="rect4112"
         y="4"
         x="1"
         height="1"
         width="1"
         style="fill:#000000" />
      <rect
         id="rect4114"
         y="4"
         x="2"
         height="1"
         width="1"
         style="fill:#ffffff" />
      <rect
         id="rect4116"
         y="4"
         x="3"
         height="1"
         width="1"
         style="fill:#000000" />
      <rect
         id="rect4118"
         y="4"
         x="4"
         height="1"
         width="1"
         style="fill:#000000" />
      <rect
         id="rect4120"
         y="4"
         x="5"
         height="1"
         width="1"
         style="fill:#ffffff" />
      <rect
         id="rect4122"
         y="5"
         x="1"
         height="1"
         width="1"
         style="fill:#000000" />
      <rect
         id="rect4124"
         y="5"
         x="2"
         height="1"
         width="1"
         style="fill:#000000" />
      <rect
         id="rect4126"
         y="5"
         x="3"
         height="1"
         width="1"
         style="fill:#ffffff" />
      <rect
         id="rect4128"
         y="5"
         x="4"
         height="1"
         width="1"
         style="fill:#000000" />
      <rect
         id="rect4130"
         y="5"
         x="5"
         height="1"
         width="1"
         style="fill:#000000" />
    </g>
    <g
       style="shape-rendering:crispEdges"
       id="g4254"
       transform="matrix(0.11248594,0,0,0.11248594,5.1181101,0.82283479)">
      <rect
         id="rect4168"
         height="7"
         width="7"
         y="0"
         x="0"
         style="fill:#000000" />
      <rect
         id="rect4170"
         y="1"
         x="1"
         height="1"
         width="1"
         style="fill:#ffffff" />
      <rect
         id="rect4172"
         y="1"
         x="2"
         height="1"
         width="1"
         style="fill:#ffffff" />
      <rect
         id="rect4174"
         y="1"
         x="3"
         height="1"
         width="1"
         style="fill:#000000" />
      <rect
         id="rect4176"
         y="1"
         x="4"
         height="1"
         width="1"
         style="fill:#ffffff" />
      <rect
         id="rect4178"
         y="1"
         x="5"
         height="1"
         width="1"
         style="fill:#000000" />
      <rect
         id="rect4180"
         y="2"
         x="1"
         height="1"
         width="1"
         style="fill:#ffffff" />
      <rect
         id="rect4182"
         y="2"
         x="2"
         height="1"
         width="1"
         style="fill:#ffffff" />
      <rect
         id="rect4184"
         y="2"
         x="3"
         height="1"
         width="1"
         style="fill:#ffffff" />
      <rect
         id="rect4186"
         y="2"
         x="4"
         height="1"
         width="1"
         style="fill:#ffffff" />
      <rect
         id="rect4188"
         y="2"
         x="5"
         height="1"
         width="1"
         style="fill:#000000" />
      <rect
         id="rect4190"
         y="3"
         x="1"
         height="1"
         width="1"
         style="fill:#000000" />
      <rect
         id="rect4192"
         y="3"
         x="2"
         height="1"
         width="1"
         style="fill:#000000" />
      <rect
         id="rect4194"
         y="3"
         x="3"
         height="1"
         width="1"
         style="fill:#000000" />
      <rect
         id="rect4196"
         y="3"
         x="4"
         height="1"
         width="1"
         style="fill:#ffffff" />
      <rect
         id="rect4198"
         y="3"
         x="5"
         height="1"
         width="1"
         style="fill:#ffffff" />
      <rect
         id="rect4200"
         y="4"
         x="1"
         height="1"
         width="1"
         style="fill:#ffffff" />
      <rect
         id="rect4202"
         y="4"
         x="2"
         height="1"
         width="1"
         style="fill:#000000" />
      <rect
         id="rect4204"
         y="4"
         x="3"
         height="1"
         width="1"
         style="fill:#ffffff" />
      <rect
         id="rect4206"
         y="4"
         x="4"
         height="1"
         width="1"
         style="fill:#ffffff" />
      <rect
         id="rect4208"
         y="4"
         x="5"
         height="1"
         width="1"
         style="fill:#000000" />
      <rect
         id="rect4210"
         y="5"
         x="1"
         height="1"
         width="1"
         style="fill:#ffffff" />
      <rect
         id="rect4212"
         y="5"
         x="2"
         height="1"
         width="1"
         style="fill:#ffffff" />
      <rect
         id="rect4214"
         y="5"
         x="3"
         height="1"
         width="1"
         style="fill:#ffffff" />
      <rect
         id="rect4216"
         y="5"
         x="4"
         height="1"
         width="1"
         style="fill:#000000" />
      <rect
         id="rect4218"
         y="5"
         x="5"
         height="1"
         width="1"
         style="fill:#ffffff" />
    </g>
    <g
       style="shape-rendering:crispEdges"
       id="g4342"
       transform="matrix(0.11248593,0,0,0.11248593,9.4488187,2.9881891)">
      <rect
         id="rect4256"
         height="7"
         width="7"
         y="0"
         x="0"
         style="fill:#000000" />
      <rect
         id="rect4258"
         y="1"
         x="1"
         height="1"
         width="1"
         style="fill:#ffffff" />
      <rect
         id="rect4260"
         y="1"
         x="2"
         height="1"
         width="1"
         style="fill:#ffffff" />
      <rect
         id="rect4262"
         y="1"
         x="3"
         height="1"
         width="1"
         style="fill:#ffffff" />
      <rect
         id="rect4264"
         y="1"
         x="4"
         height="1"
         width="1"
         style="fill:#000000" />
      <rect
         id="rect4266"
         y="1"
         x="5"
         height="1"
         width="1"
         style="fill:#ffffff" />
      <rect
         id="rect4268"
         y="2"
         x="1"
         height="1"
         width="1"
         style="fill:#000000" />
      <rect
         id="rect4270"
         y="2"
         x="2"
         height="1"
         width="1"
         style="fill:#ffffff" />
      <rect
         id="rect4272"
         y="2"
         x="3"
         height="1"
         width="1"
         style="fill:#000000" />
      <rect
         id="rect4274"
         y="2"
         x="4"
         height="1"
         width="1"
         style="fill:#000000" />
      <rect
         id="rect4276"
         y="2"
         x="5"
         height="1"
         width="1"
         style="fill:#000000" />
      <rect
         id="rect4278"
         y="3"
         x="1"
         height="1"
         width="1"
         style="fill:#000000" />
      <rect
         id="rect4280"
         y="3"
         x="2"
         height="1"
         width="1"
         style="fill:#000000" />
      <rect
         id="rect4282"
         y="3"
         x="3"
         height="1"
         width="1"
         style="fill:#000000" />
      <rect
         id="rect4284"
         y="3"
         x="4"
         height="1"
         width="1"
         style="fill:#ffffff" />
      <rect
         id="rect4286"
         y="3"
         x="5"
         height="1"
         width="1"
         style="fill:#000000" />
      <rect
         id="rect4288"
         y="4"
         x="1"
         height="1"
         width="1"
         style="fill:#000000" />
      <rect
         id="rect4290"
         y="4"
         x="2"
         height="1"
         width="1"
         style="fill:#000000" />
      <rect
         id="rect4292"
         y="4"
         x="3"
         height="1"
         width="1"
         style="fill:#000000" />
      <rect
         id="rect4294"
         y="4"
         x="4"
         height="1"
         width="1"
         style="fill:#000000" />
      <rect
         id="rect4296"
         y="4"
         x="5"
         height="1"
         width="1"
         style="fill:#ffffff" />
      <rect
         id="rect4298"
         y="5"
         x="1"
         height="1"
         width="1"
         style="fill:#000000" />
      <rect
         id="rect4300"
         y="5"
         x="2"
         height="1"
         width="1"
         style="fill:#ffffff" />
      <rect
         id="rect4302"
         y="5"
         x="3"
         height="1"
         width="1"
         style="fill:#ffffff" />
      <rect
         id="rect4304"
         y="5"
         x="4"
         height="1"
         width="1"
         style="fill:#000000" />
      <rect
         id="rect4306"
         y="5"
         x="5"
         height="1"
         width="1"
         style="fill:#ffffff" />
    </g>
    <g
       style="shape-rendering:crispEdges"
       id="g4430"
       transform="matrix(0.11248594,0,0,0.11248593,9.4488187,5.1535434)">
      <rect
         id="rect4344"
         height="7"
         width="7"
         y="0"
         x="0"
         style="fill:#000000" />
      <rect
         id="rect4346"
         y="1"
         x="1"
         height="1"
         width="1"
         style="fill:#000000" />
      <rect
         id="rect4348"
         y="1"
         x="2"
         height="1"
         width="1"
         style="fill:#ffffff" />
      <rect
         id="rect4350"
         y="1"
         x="3"
         height="1"
         width="1"
         style="fill:#ffffff" />
      <rect
         id="rect4352"
         y="1"
         x="4"
         height="1"
         width="1"
         style="fill:#000000" />
      <rect
         id="rect4354"
         y="1"
         x="5"
         height="1"
         width="1"
         style="fill:#ffffff" />
      <rect
         id="rect4356"
         y="2"
         x="1"
         height="1"
         width="1"
         style="fill:#000000" />
      <rect
         id="rect4358"
         y="2"
         x="2"
         height="1"
         width="1"
         style="fill:#000000" />
      <rect
         id="rect4360"
         y="2"
         x="3"
         height="1"
         width="1"
         style="fill:#ffffff" />
      <rect
         id="rect4362"
         y="2"
         x="4"
         height="1"
         width="1"
         style="fill:#ffffff" />
      <rect
         id="rect4364"
         y="2"
         x="5"
         height="1"
         width="1"
         style="fill:#ffffff" />
      <rect
         id="rect4366"
         y="3"
         x="1"
         height="1"
         width="1"
         style="fill:#ffffff" />
      <rect
         id="rect4368"
         y="3"
         x="2"
         height="1"
         width="1"
         style="fill:#000000" />
      <rect
         id="rect4370"
         y="3"
         x="3"
         height="1"
         width="1"
         style="fill:#ffffff" />
      <rect
         id="rect4372"
         y="3"
         x="4"
         height="1"
         width="1"
         style="fill:#000000" />
      <rect
         id="rect4374"
         y="3"
         x="5"
         height="1"
         width="1"
         style="fill:#ffffff" />
      <rect
         id="rect4376"
         y="4"
         x="1"
         height="1"
         width="1"
         style="fill:#ffffff" />
      <rect
         id="rect4378"
         y="4"
         x="2"
         height="1"
         width="1"
         style="fill:#ffffff" />
      <rect
         id="rect4380"
         y="4"
         x="3"
         height="1"
         width="1"
         style="fill:#ffffff" />
      <rect
         id="rect4382"
         y="4"
         x="4"
         height="1"
         width="1"
         style="fill:#ffffff" />
      <rect
         id="rect4384"
         y="4"
         x="5"
         height="1"
         width="1"
         style="fill:#ffffff" />
      <rect
         id="rect4386"
         y="5"
         x="1"
         height="1"
         width="1"
         style="fill:#000000" />
      <rect
         id="rect4388"
         y="5"
         x="2"
         height="1"
         width="1"
         style="fill:#ffffff" />
      <rect
         id="rect4390"
         y="5"
         x="3"
         height="1"
         width="1"
         style="fill:#ffffff" />
      <rect
         id="rect4392"
         y="5"
         x="4"
         height="1"
         width="1"
         style="fill:#000000" />
      <rect
         id="rect4394"
         y="5"
         x="5"
         height="1"
         width="1"
         style="fill:#000000" />
    </g>
    <g
       style="shape-rendering:crispEdges"
       id="g4518"
       transform="matrix(0.11248594,0,0,0.11248594,7.2834644,5.1535434)">
      <rect
         id="rect4432"
         height="7"
         width="7"
         y="0"
         x="0"
         style="fill:#000000" />
      <rect
         id="rect4434"
         y="1"
         x="1"
         height="1"
         width="1"
         style="fill:#000000" />
      <rect
         id="rect4436"
         y="1"
         x="2"
         height="1"
         width="1"
         style="fill:#ffffff" />
      <rect
         id="rect4438"
         y="1"
         x="3"
         height="1"
         width="1"
         style="fill:#ffffff" />
      <rect
         id="rect4440"
         y="1"
         x="4"
         height="1"
         width="1"
         style="fill:#ffffff" />
      <rect
         id="rect4442"
         y="1"
         x="5"
         height="1"
         width="1"
         style="fill:#000000" />
      <rect
         id="rect4444"
         y="2"
         x="1"
         height="1"
         width="1"
         style="fill:#000000" />
      <rect
         id="rect4446"
         y="2"
         x="2"
         height="1"
         width="1"
         style="fill:#000000" />
      <rect
         id="rect4448"
         y="2"
         x="3"
         height="1"
         width="1"
         style="fill:#ffffff" />
      <rect
         id="rect4450"
         y="2"
         x="4"
         height="1"
         width="1"
         style="fill:#000000" />
      <rect
         id="rect4452"
         y="2"
         x="5"
         height="1"
         width="1"
         style="fill:#000000" />
      <rect
         id="rect4454"
         y="3"
         x="1"
         height="1"
         width="1"
         style="fill:#000000" />
      <rect
         id="rect4456"
         y="3"
         x="2"
         height="1"
         width="1"
         style="fill:#000000" />
      <rect
         id="rect4458"
         y="3"
         x="3"
         height="1"
         width="1"
         style="fill:#ffffff" />
      <rect
         id="rect4460"
         y="3"
         x="4"
         height="1"
         width="1"
         style="fill:#000000" />
      <rect
         id="rect4462"
         y="3"
         x="5"
         height="1"
         width="1"
         style="fill:#ffffff" />
      <rect
         id="rect4464"
         y="4"
         x="1"
         height="1"
         width="1"
         style="fill:#000000" />
      <rect
         id="rect4466"
         y="4"
         x="2"
         height="1"
         width="1"
         style="fill:#000000" />
      <rect
         id="rect4468"
         y="4"
         x="3"
         height="1"
         width="1"
         style="fill:#000000" />
      <rect
         id="rect4470"
         y="4"
         x="4"
         height="1"
         width="1"
         style="fill:#ffffff" />
      <rect
         id="rect4472"
         y="4"
         x="5"
         height="1"
         width="1"
         style="fill:#ffffff" />
      <rect
         id="rect4474"
         y="5"
         x="1"
         height="1"
         width="1"
         style="fill:#000000" />
      <rect
         id="rect4476"
         y="5"
         x="2"
         height="1"
         width="1"
         style="fill:#ffffff" />
      <rect
         id="rect4478"
         y="5"
         x="3"
         height="1"
         width="1"
         style="fill:#000000" />
      <rect
         id="rect4480"
         y="5"
         x="4"
         height="1"
         width="1"
         style="fill:#ffffff" />
      <rect
         id="rect4482"
         y="5"
         x="5"
         height="1"
         width="1"
         style="fill:#ffffff" />
    </g>
    <g
       style="shape-rendering:crispEdges"
       id="g4606"
       transform="matrix(0.11248594,0,0,0.11248594,5.1181101,5.1535434)">
      <rect
         id="rect4520"
         height="7"
         width="7"
         y="0"
         x="0"
         style="fill:#000000" />
      <rect
         id="rect4522"
         y="1"
         x="1"
         height="1"
         width="1"
         style="fill:#ffffff" />
      <rect
         id="rect4524"
         y="1"
         x="2"
         height="1"
         width="1"
         style="fill:#000000" />
      <rect
         id="rect4526"
         y="1"
         x="3"
         height="1"
         width="1"
         style="fill:#000000" />
      <rect
         id="rect4528"
         y="1"
         x="4"
         height="1"
         width="1"
         style="fill:#000000" />
      <rect
         id="rect4530"
         y="1"
         x="5"
         height="1"
         width="1"
         style="fill:#000000" />
      <rect
         id="rect4532"
         y="2"
         x="1"
         height="1"
         width="1"
         style="fill:#ffffff" />
      <rect
         id="rect4534"
         y="2"
         x="2"
         height="1"
         width="1"
         style="fill:#ffffff" />
      <rect
         id="rect4536"
         y="2"
         x="3"
         height="1"
         width="1"
         style="fill:#000000" />
      <rect
         id="rect4538"
         y="2"
         x="4"
         height="1"
         width="1"
         style="fill:#ffffff" />
      <rect
         id="rect4540"
         y="2"
         x="5"
         height="1"
         width="1"
         style="fill:#000000" />
      <rect
         id="rect4542"
         y="3"
         x="1"
         height="1"
         width="1"
         style="fill:#ffffff" />
      <rect
         id="rect4544"
         y="3"
         x="2"
         height="1"
         width="1"
         style="fill:#ffffff" />
      <rect
         id="rect4546"
         y="3"
         x="3"
         height="1"
         width="1"
         style="fill:#000000" />
      <rect
         id="rect4548"
         y="3"
         x="4"
         height="1"
         width="1"
         style="fill:#000000" />
      <rect
         id="rect4550"
         y="3"
         x="5"
         height="1"
         width="1"
         style="fill:#000000" />
      <rect
         id="rect4552"
         y="4"
         x="1"
         height="1"
         width="1"
         style="fill:#000000" />
      <rect
         id="rect4554"
         y="4"
         x="2"
         height="1"
         width="1"
         style="fill:#ffffff" />
      <rect
         id="rect4556"
         y="4"
         x="3"
         height="1"
         width="1"
         style="fill:#000000" />
      <rect
         id="rect4558"
         y="4"
         x="4"
         height="1"
         width="1"
         style="fill:#000000" />
      <rect
         id="rect4560"
         y="4"
         x="5"
         height="1"
         width="1"
         style="fill:#ffffff" />
      <rect
         id="rect4562"
         y="5"
         x="1"
         height="1"
         width="1"
         style="fill:#ffffff" />
      <rect
         id="rect4564"
         y="5"
         x="2"
         height="1"
         width="1"
         style="fill:#000000" />
      <rect
         id="rect4566"
         y="5"
         x="3"
         height="1"
         width="1"
         style="fill:#000000" />
      <rect
         id="rect4568"
         y="5"
         x="4"
         height="1"
         width="1"
         style="fill:#ffffff" />
      <rect
         id="rect4570"
         y="5"
         x="5"
         height="1"
         width="1"
         style="fill:#000000" />
    </g>
    <g
       style="shape-rendering:crispEdges"
       id="g4694"
       transform="matrix(0.11248594,0,0,0.11248594,2.9527558,5.1535434)">
      <rect
         id="rect4608"
         height="7"
         width="7"
         y="0"
         x="0"
         style="fill:#000000" />
      <rect
         id="rect4610"
         y="1"
         x="1"
         height="1"
         width="1"
         style="fill:#ffffff" />
      <rect
         id="rect4612"
         y="1"
         x="2"
         height="1"
         width="1"
         style="fill:#000000" />
      <rect
         id="rect4614"
         y="1"
         x="3"
         height="1"
         width="1"
         style="fill:#000000" />
      <rect
         id="rect4616"
         y="1"
         x="4"
         height="1"
         width="1"
         style="fill:#ffffff" />
      <rect
         id="rect4618"
         y="1"
         x="5"
         height="1"
         width="1"
         style="fill:#ffffff" />
      <rect
         id="rect4620"
         y="2"
         x="1"
         height="1"
         width="1"
         style="fill:#000000" />
      <rect
         id="rect4622"
         y="2"
         x="2"
         height="1"
         width="1"
         style="fill:#000000" />
      <rect
         id="rect4624"
         y="2"
         x="3"
         height="1"
         width="1"
         style="fill:#000000" />
      <rect
         id="rect4626"
         y="2"
         x="4"
         height="1"
         width="1"
         style="fill:#ffffff" />
      <rect
         id="rect4628"
         y="2"
         x="5"
         height="1"
         width="1"
         style="fill:#000000" />
      <rect
         id="rect4630"
         y="3"
         x="1"
         height="1"
         width="1"
         style="fill:#000000" />
      <rect
         id="rect4632"
         y="3"
         x="2"
         height="1"
         width="1"
         style="fill:#ffffff" />
      <rect
         id="rect4634"
         y="3"
         x="3"
         height="1"
         width="1"
         style="fill:#ffffff" />
      <rect
         id="rect4636"
         y="3"
         x="4"
         height="1"
         width="1"
         style="fill:#ffffff" />
      <rect
         id="rect4638"
         y="3"
         x="5"
         height="1"
         width="1"
         style="fill:#ffffff" />
      <rect
         id="rect4640"
         y="4"
         x="1"
         height="1"
         width="1"
         style="fill:#ffffff" />
      <rect
         id="rect4642"
         y="4"
         x="2"
         height="1"
         width="1"
         style="fill:#ffffff" />
      <rect
         id="rect4644"
         y="4"
         x="3"
         height="1"
         width="1"
         style="fill:#ffffff" />
      <rect
         id="rect4646"
         y="4"
         x="4"
         height="1"
         width="1"
         style="fill:#000000" />
      <rect
         id="rect4648"
         y="4"
         x="5"
         height="1"
         width="1"
         style="fill:#ffffff" />
      <rect
         id="rect4650"
         y="5"
         x="1"
         height="1"
         width="1"
         style="fill:#000000" />
      <rect
         id="rect4652"
         y="5"
         x="2"
         height="1"
         width="1"
         style="fill:#000000" />
      <rect
         id="rect4654"
         y="5"
         x="3"
         height="1"
         width="1"
         style="fill:#ffffff" />
      <rect
         id="rect4656"
         y="5"
         x="4"
         height="1"
         width="1"
         style="fill:#000000" />
      <rect
         id="rect4658"
         y="5"
         x="5"
         height="1"
         width="1"
         style="fill:#ffffff" />
    </g>
    <g
       style="shape-rendering:crispEdges"
       id="g4782"
       transform="matrix(0.11248594,0,0,0.11248594,0.78740154,5.1535434)">
      <rect
         id="rect4696"
         height="7"
         width="7"
         y="0"
         x="0"
         style="fill:#000000" />
      <rect
         id="rect4698"
         y="1"
         x="1"
         height="1"
         width="1"
         style="fill:#ffffff" />
      <rect
         id="rect4700"
         y="1"
         x="2"
         height="1"
         width="1"
         style="fill:#000000" />
      <rect
         id="rect4702"
         y="1"
         x="3"
         height="1"
         width="1"
         style="fill:#000000" />
      <rect
         id="rect4704"
         y="1"
         x="4"
         height="1"
         width="1"
         style="fill:#ffffff" />
      <rect
         id="rect4706"
         y="1"
         x="5"
         height="1"
         width="1"
         style="fill:#ffffff" />
      <rect
         id="rect4708"
         y="2"
         x="1"
         height="1"
         width="1"
         style="fill:#ffffff" />
      <rect
         id="rect4710"
         y="2"
         x="2"
         height="1"
         width="1"
         style="fill:#ffffff" />
      <rect
         id="rect4712"
         y="2"
         x="3"
         height="1"
         width="1"
         style="fill:#000000" />
      <rect
         id="rect4714"
         y="2"
         x="4"
         height="1"
         width="1"
         style="fill:#000000" />
      <rect
         id="rect4716"
         y="2"
         x="5"
         height="1"
         width="1"
         style="fill:#ffffff" />
      <rect
         id="rect4718"
         y="3"
         x="1"
         height="1"
         width="1"
         style="fill:#ffffff" />
      <rect
         id="rect4720"
         y="3"
         x="2"
         height="1"
         width="1"
         style="fill:#ffffff" />
      <rect
         id="rect4722"
         y="3"
         x="3"
         height="1"
         width="1"
         style="fill:#000000" />
      <rect
         id="rect4724"
         y="3"
         x="4"
         height="1"
         width="1"
         style="fill:#ffffff" />
      <rect
         id="rect4726"
         y="3"
         x="5"
         height="1"
         width="1"
         style="fill:#ffffff" />
      <rect
         id="rect4728"
         y="4"
         x="1"
         height="1"
         width="1"
         style="fill:#ffffff" />
      <rect
         id="rect4730"
         y="4"
         x="2"
         height="1"
         width="1"
         style="fill:#000000" />
      <rect
         id="rect4732"
         y="4"
         x="3"
         height="1"
         width="1"
         style="fill:#000000" />
      <rect
         id="rect4734"
         y="4"
         x="4"
         height="1"
         width="1"
         style="fill:#000000" />
      <rect
         id="rect4736"
         y="4"
         x="5"
         height="1"
         width="1"
         style="fill:#000000" />
      <rect
         id="rect4738"
         y="5"
         x="1"
         height="1"
         width="1"
         style="fill:#000000" />
      <rect
         id="rect4740"
         y="5"
         x="2"
         height="1"
         width="1"
         style="fill:#000000" />
      <rect
         id="rect4742"
         y="5"
         x="3"
         height="1"
         width="1"
         style="fill:#000000" />
      <rect
         id="rect4744"
         y="5"
         x="4"
         height="1"
         width="1"
         style="fill:#ffffff" />
      <rect
         id="rect4746"
         y="5"
         x="5"
         height="1"
         width="1"
         style="fill:#ffffff" />
    </g>
    <g
       style="shape-rendering:crispEdges"
       id="g4870"
       transform="matrix(0.11248594,0,0,0.11248594,0.78740154,2.9881891)">
      <rect
         id="rect4784"
         height="7"
         width="7"
         y="0"
         x="0"
         style="fill:#000000" />
      <rect
         id="rect4786"
         y="1"
         x="1"
         height="1"
         width="1"
         style="fill:#ffffff" />
      <rect
         id="rect4788"
         y="1"
         x="2"
         height="1"
         width="1"
         style="fill:#ffffff" />
      <rect
         id="rect4790"
         y="1"
         x="3"
         height="1"
         width="1"
         style="fill:#000000" />
      <rect
         id="rect4792"
         y="1"
         x="4"
         height="1"
         width="1"
         style="fill:#ffffff" />
      <rect
         id="rect4794"
         y="1"
         x="5"
         height="1"
         width="1"
         style="fill:#000000" />
      <rect
         id="rect4796"
         y="2"
         x="1"
         height="1"
         width="1"
         style="fill:#000000" />
      <rect
         id="rect4798"
         y="2"
         x="2"
         height="1"
         width="1"
         style="fill:#000000" />
      <rect
         id="rect4800"
         y="2"
         x="3"
         height="1"
         width="1"
         style="fill:#ffffff" />
      <rect
         id="rect4802"
         y="2"
         x="4"
         height="1"
         width="1"
         style="fill:#000000" />
      <rect
         id="rect4804"
         y="2"
         x="5"
         height="1"
         width="1"
         style="fill:#ffffff" />
      <rect
         id="rect4806"
         y="3"
         x="1"
         height="1"
         width="1"
         style="fill:#ffffff" />
      <rect
         id="rect4808"
         y="3"
         x="2"
         height="1"
         width="1"
         style="fill:#000000" />
      <rect
         id="rect4810"
         y="3"
         x="3"
         height="1"
         width="1"
         style="fill:#ffffff" />
      <rect
         id="rect4812"
         y="3"
         x="4"
         height="1"
         width="1"
         style="fill:#ffffff" />
      <rect
         id="rect4814"
         y="3"
         x="5"
         height="1"
         width="1"
         style="fill:#000000" />
      <rect
         id="rect4816"
         y="4"
         x="1"
         height="1"
         width="1"
         style="fill:#ffffff" />
      <rect
         id="rect4818"
         y="4"
         x="2"
         height="1"
         width="1"
         style="fill:#000000" />
      <rect
         id="rect4820"
         y="4"
         x="3"
         height="1"
         width="1"
         style="fill:#ffffff" />
      <rect
         id="rect4822"
         y="4"
         x="4"
         height="1"
         width="1"
         style="fill:#ffffff" />
      <rect
         id="rect4824"
         y="4"
         x="5"
         height="1"
         width="1"
         style="fill:#000000" />
      <rect
         id="rect4826"
         y="5"
         x="1"
         height="1"
         width="1"
         style="fill:#000000" />
      <rect
         id="rect4828"
         y="5"
         x="2"
         height="1"
         width="1"
         style="fill:#000000" />
      <rect
         id="rect4830"
         y="5"
         x="3"
         height="1"
         width="1"
         style="fill:#000000" />
      <rect
         id="rect4832"
         y="5"
         x="4"
         height="1"
         width="1"
         style="fill:#000000" />
      <rect
         id="rect4834"
         y="5"
         x="5"
         height="1"
         width="1"
         style="fill:#000000" />
    </g>
  </g>
</svg>
